<svg xmlns="http://www.w3.org/2000/svg" viewBox="0 0 280 180" role="img" aria-label="cheetah in motion"><title>cheetah in natural colors</title><path d="M92 107L60 125L20 141L12 136L47 115L64 92" fill="#9a773f" stroke="#594b3e" stroke-width="2" stroke-linecap="round" stroke-linejoin="round"/><path d="M171 103L206 122L249 120L259 126L207 132L158 115" fill="#9a773f" stroke="#594b3e" stroke-width="2" stroke-linecap="round" stroke-linejoin="round"/><path d="M66 92Q31 88 14 66" fill="none" stroke="#e7b653" stroke-width="6" stroke-linecap="round" stroke-linejoin="round"/><path d="M61 84Q80 65 119 79Q147 90 180 78L193 90Q195 111 164 119Q125 121 106 108Q82 127 65 112Q 50 99 61 84Z" fill="#e7b653" stroke="#594b3e" stroke-width="2" stroke-linecap="round" stroke-linejoin="round"/><path d="M90 104L69 131L35 150L21 147L59 119L64 103" fill="#e7b653" stroke="#594b3e" stroke-width="2" stroke-linecap="round" stroke-linejoin="round"/><path d="M166 104L198 114L240 102L255 108L201 125L158 119" fill="#e7b653" stroke="#594b3e" stroke-width="2" stroke-linecap="round" stroke-linejoin="round"/><path d="M172 89Q176 65 202 65Q225 65 234 82L253 88L247 99L220 102L194 111Z" fill="#e7b653" stroke="#594b3e" stroke-width="2" stroke-linecap="round" stroke-linejoin="round"/><ellipse cx="198" cy="65" rx="9" ry="10" fill="#e7b653"/><ellipse cx="227" cy="81" rx="2.5" ry="3" fill="#292c28"/><ellipse cx="227.7" cy="80.2" rx="0.8" ry="0.8" fill="white"/><ellipse cx="250" cy="89" rx="3" ry="2" fill="#4e3f34"/><ellipse cx="72" cy="87" rx="2.8" ry="2" fill="#58412b"/><ellipse cx="86" cy="87" rx="2.8" ry="2" fill="#58412b"/><ellipse cx="100" cy="87" rx="2.8" ry="2" fill="#58412b"/><ellipse cx="114" cy="87" rx="2.8" ry="2" fill="#58412b"/><ellipse cx="128" cy="87" rx="2.8" ry="2" fill="#58412b"/><ellipse cx="142" cy="87" rx="2.8" ry="2" fill="#58412b"/><ellipse cx="156" cy="87" rx="2.8" ry="2" fill="#58412b"/><ellipse cx="170" cy="87" rx="2.8" ry="2" fill="#58412b"/><ellipse cx="72" cy="96" rx="2.8" ry="2" fill="#58412b"/><ellipse cx="86" cy="96" rx="2.8" ry="2" fill="#58412b"/><ellipse cx="100" cy="96" rx="2.8" ry="2" fill="#58412b"/><ellipse cx="114" cy="96" rx="2.8" ry="2" fill="#58412b"/><ellipse cx="128" cy="96" rx="2.8" ry="2" fill="#58412b"/><ellipse cx="142" cy="96" rx="2.8" ry="2" fill="#58412b"/><ellipse cx="156" cy="96" rx="2.8" ry="2" fill="#58412b"/><ellipse cx="170" cy="96" rx="2.8" ry="2" fill="#58412b"/><ellipse cx="72" cy="105" rx="2.8" ry="2" fill="#58412b"/><ellipse cx="86" cy="105" rx="2.8" ry="2" fill="#58412b"/><ellipse cx="100" cy="105" rx="2.8" ry="2" fill="#58412b"/><ellipse cx="114" cy="105" rx="2.8" ry="2" fill="#58412b"/><ellipse cx="128" cy="105" rx="2.8" ry="2" fill="#58412b"/><ellipse cx="142" cy="105" rx="2.8" ry="2" fill="#58412b"/><path d="M226 85L232 94" fill="none" stroke="#58412b" stroke-width="2" stroke-linecap="round" stroke-linejoin="round"/></svg>
